<?xml version="1.0" encoding="UTF-8" standalone="no"?>
<!-- Created with Inkscape (http://www.inkscape.org/) -->

<svg
   xmlns:dc="http://purl.org/dc/elements/1.1/"
   xmlns:cc="http://creativecommons.org/ns#"
   xmlns:rdf="http://www.w3.org/1999/02/22-rdf-syntax-ns#"
   xmlns:svg="http://www.w3.org/2000/svg"
   xmlns="http://www.w3.org/2000/svg"
   xmlns:xlink="http://www.w3.org/1999/xlink"
   xmlns:sodipodi="http://sodipodi.sourceforge.net/DTD/sodipodi-0.dtd"
   xmlns:inkscape="http://www.inkscape.org/namespaces/inkscape"
   version="1.0"
   width="96"
   height="96"
   id="svg2408"
   inkscape:version="0.47 r22583"
   sodipodi:docname="faenza_quodlibet.svg">
  <sodipodi:namedview
     pagecolor="#ffffff"
     bordercolor="#666666"
     borderopacity="1"
     objecttolerance="10"
     gridtolerance="10"
     guidetolerance="10"
     inkscape:pageopacity="0"
     inkscape:pageshadow="2"
     inkscape:window-width="1257"
     inkscape:window-height="832"
     id="namedview192"
     showgrid="false"
     inkscape:zoom="2.4583333"
     inkscape:cx="-17.491525"
     inkscape:cy="48"
     inkscape:window-x="344"
     inkscape:window-y="56"
     inkscape:window-maximized="0"
     inkscape:current-layer="svg2408" />
  <defs
     id="defs2410">
    <inkscape:perspective
       sodipodi:type="inkscape:persp3d"
       inkscape:vp_x="0 : 48 : 1"
       inkscape:vp_y="0 : 1000 : 0"
       inkscape:vp_z="96 : 48 : 1"
       inkscape:persp3d-origin="48 : 32 : 1"
       id="perspective194" />
    <linearGradient
       id="linearGradient3921">
      <stop
         id="stop3923"
         style="stop-color:#5fd3bc;stop-opacity:0"
         offset="0" />
      <stop
         id="stop3929"
         style="stop-color:#5fd3bc;stop-opacity:1"
         offset="0.5" />
      <stop
         id="stop3925"
         style="stop-color:#5fd3bc;stop-opacity:0"
         offset="1" />
    </linearGradient>
    <linearGradient
       id="linearGradient3911">
      <stop
         id="stop3913"
         style="stop-color:#2a7fff;stop-opacity:0"
         offset="0" />
      <stop
         id="stop3919"
         style="stop-color:#2a7fff;stop-opacity:1"
         offset="0.5" />
      <stop
         id="stop3915"
         style="stop-color:#2a7fff;stop-opacity:0"
         offset="1" />
    </linearGradient>
    <linearGradient
       id="linearGradient3901">
      <stop
         id="stop3903"
         style="stop-color:#6600ff;stop-opacity:0"
         offset="0" />
      <stop
         id="stop3909"
         style="stop-color:#6600ff;stop-opacity:1"
         offset="0.5" />
      <stop
         id="stop3905"
         style="stop-color:#6600ff;stop-opacity:0"
         offset="1" />
    </linearGradient>
    <linearGradient
       id="linearGradient3891">
      <stop
         id="stop3893"
         style="stop-color:#d42aff;stop-opacity:0"
         offset="0" />
      <stop
         id="stop3899"
         style="stop-color:#d42aff;stop-opacity:1"
         offset="0.5" />
      <stop
         id="stop3895"
         style="stop-color:#d42aff;stop-opacity:0"
         offset="1" />
    </linearGradient>
    <linearGradient
       id="linearGradient3881">
      <stop
         id="stop3883"
         style="stop-color:#d40000;stop-opacity:0"
         offset="0" />
      <stop
         id="stop3889"
         style="stop-color:#d40000;stop-opacity:1"
         offset="0.5" />
      <stop
         id="stop3885"
         style="stop-color:#d40000;stop-opacity:0"
         offset="1" />
    </linearGradient>
    <linearGradient
       id="linearGradient3871">
      <stop
         id="stop3873"
         style="stop-color:#ff6600;stop-opacity:0"
         offset="0" />
      <stop
         id="stop3879"
         style="stop-color:#ff6600;stop-opacity:1"
         offset="0.5" />
      <stop
         id="stop3875"
         style="stop-color:#ff6600;stop-opacity:0"
         offset="1" />
    </linearGradient>
    <linearGradient
       id="linearGradient3861">
      <stop
         id="stop3863"
         style="stop-color:#ffcc00;stop-opacity:0"
         offset="0" />
      <stop
         id="stop3869"
         style="stop-color:#ffcc00;stop-opacity:1"
         offset="0.5" />
      <stop
         id="stop3865"
         style="stop-color:#ffcc00;stop-opacity:0"
         offset="1" />
    </linearGradient>
    <linearGradient
       id="linearGradient3851">
      <stop
         id="stop3853"
         style="stop-color:#55d400;stop-opacity:0"
         offset="0" />
      <stop
         id="stop3859"
         style="stop-color:#55d400;stop-opacity:1"
         offset="0.5" />
      <stop
         id="stop3855"
         style="stop-color:#55d400;stop-opacity:0"
         offset="1" />
    </linearGradient>
    <linearGradient
       id="linearGradient3797">
      <stop
         id="stop3799"
         style="stop-color:#ffffff;stop-opacity:1"
         offset="0" />
      <stop
         id="stop3805"
         style="stop-color:#ffffff;stop-opacity:1"
         offset="0.5" />
      <stop
         id="stop3801"
         style="stop-color:#ffffff;stop-opacity:0"
         offset="1" />
    </linearGradient>
    <linearGradient
       id="linearGradient3761">
      <stop
         id="stop3763"
         style="stop-color:#ffffff;stop-opacity:1"
         offset="0" />
      <stop
         id="stop3765"
         style="stop-color:#ffffff;stop-opacity:0"
         offset="1" />
    </linearGradient>
    <linearGradient
       id="linearGradient3727">
      <stop
         id="stop3729"
         style="stop-color:#ffffff;stop-opacity:1"
         offset="0" />
      <stop
         id="stop3731"
         style="stop-color:#ffffff;stop-opacity:0"
         offset="1" />
    </linearGradient>
    <linearGradient
       id="linearGradient3681">
      <stop
         id="stop3683"
         style="stop-color:#ffffff;stop-opacity:0.18548387"
         offset="0" />
      <stop
         id="stop3689"
         style="stop-color:#ffffff;stop-opacity:0.10887097"
         offset="0.3086735" />
      <stop
         id="stop3691"
         style="stop-color:#000000;stop-opacity:0"
         offset="0.43622452" />
      <stop
         id="stop3693"
         style="stop-color:#000000;stop-opacity:0"
         offset="0.54464293" />
      <stop
         id="stop3695"
         style="stop-color:#ffffff;stop-opacity:0"
         offset="0.58290821" />
      <stop
         id="stop3697"
         style="stop-color:#000000;stop-opacity:0.1814516"
         offset="0.61479598" />
      <stop
         id="stop3699"
         style="stop-color:#000000;stop-opacity:0.43145162"
         offset="0.69132656" />
      <stop
         id="stop3701"
         style="stop-color:#ffffff;stop-opacity:0.08064516"
         offset="0.78061229" />
      <stop
         id="stop3703"
         style="stop-color:#000000;stop-opacity:0"
         offset="0.87627554" />
      <stop
         id="stop3685"
         style="stop-color:#ffffff;stop-opacity:0"
         offset="1" />
    </linearGradient>
    <linearGradient
       id="linearGradient3746">
      <stop
         id="stop3748"
         style="stop-color:#5d5d5d;stop-opacity:1"
         offset="0" />
      <stop
         id="stop3753"
         style="stop-color:#0a0a0a;stop-opacity:1"
         offset="0.60000002" />
      <stop
         id="stop3751"
         style="stop-color:#4e4e4e;stop-opacity:1"
         offset="1" />
    </linearGradient>
    <linearGradient
       id="linearGradient3732">
      <stop
         id="stop3734"
         style="stop-color:#000000;stop-opacity:0"
         offset="0" />
      <stop
         id="stop3740"
         style="stop-color:#000000;stop-opacity:0"
         offset="0.94999999" />
      <stop
         id="stop3736"
         style="stop-color:#000000;stop-opacity:1"
         offset="1" />
    </linearGradient>
    <linearGradient
       id="linearGradient3719">
      <stop
         id="stop3721"
         style="stop-color:#4b4b4b;stop-opacity:1"
         offset="0" />
      <stop
         id="stop3723"
         style="stop-color:#232323;stop-opacity:1"
         offset="0.37373093" />
      <stop
         id="stop3725"
         style="stop-color:#5c5c5c;stop-opacity:1"
         offset="1" />
    </linearGradient>
    <linearGradient
       id="linearGradient3664">
      <stop
         id="stop3666"
         style="stop-color:#000000;stop-opacity:0.29838711"
         offset="0" />
      <stop
         id="stop3668"
         style="stop-color:#ffffff;stop-opacity:0.64516127"
         offset="1" />
    </linearGradient>
    <linearGradient
       id="linearGradient3650">
      <stop
         id="stop3709"
         style="stop-color:#141414;stop-opacity:1"
         offset="0" />
      <stop
         id="stop3654"
         style="stop-color:#616161;stop-opacity:1"
         offset="1" />
    </linearGradient>
    <linearGradient
       id="linearGradient3641">
      <stop
         id="stop3643"
         style="stop-color:#bdb8c4;stop-opacity:1"
         offset="0" />
      <stop
         id="stop3645"
         style="stop-color:#dbd9df;stop-opacity:1"
         offset="1" />
    </linearGradient>
    <linearGradient
       x1="45.447727"
       y1="92.539597"
       x2="45.447727"
       y2="7.0165396"
       id="ButtonShadow"
       gradientUnits="userSpaceOnUse"
       gradientTransform="scale(1.0058652,0.994169)">
      <stop
         id="stop3750"
         style="stop-color:#000000;stop-opacity:1"
         offset="0" />
      <stop
         id="stop3752"
         style="stop-color:#000000;stop-opacity:0.58823532"
         offset="1" />
    </linearGradient>
    <linearGradient
       id="linearGradient3737">
      <stop
         id="stop3739"
         style="stop-color:#ffffff;stop-opacity:1"
         offset="0" />
      <stop
         id="stop3741"
         style="stop-color:#ffffff;stop-opacity:0"
         offset="1" />
    </linearGradient>
    <filter
       color-interpolation-filters="sRGB"
       id="filter3174">
      <feGaussianBlur
         id="feGaussianBlur3176"
         stdDeviation="1.71" />
    </filter>
    <linearGradient
       x1="36.357143"
       y1="6"
       x2="36.357143"
       y2="63.893143"
       id="linearGradient3188"
       xlink:href="#linearGradient3737"
       gradientUnits="userSpaceOnUse" />
    <filter
       x="-0.192"
       y="-0.192"
       width="1.3839999"
       height="1.3839999"
       color-interpolation-filters="sRGB"
       id="filter3794">
      <feGaussianBlur
         id="feGaussianBlur3796"
         stdDeviation="5.28" />
    </filter>
    <linearGradient
       x1="48"
       y1="20.220806"
       x2="48"
       y2="138.66119"
       id="linearGradient3613"
       xlink:href="#linearGradient3737"
       gradientUnits="userSpaceOnUse" />
    <radialGradient
       cx="48"
       cy="90.171875"
       r="42"
       fx="48"
       fy="90.171875"
       id="radialGradient3619"
       xlink:href="#linearGradient3737"
       gradientUnits="userSpaceOnUse"
       gradientTransform="matrix(1.1573129,0,0,0.99590774,-7.5510206,0.19713193)" />
    <clipPath
       id="clipPath3613">
      <rect
         width="84"
         height="84"
         rx="6"
         ry="6"
         x="6"
         y="6"
         id="rect3615"
         style="fill:#ffffff;fill-opacity:1;fill-rule:nonzero;stroke:none" />
    </clipPath>
    <linearGradient
       x1="48"
       y1="90"
       x2="48"
       y2="5.9877172"
       id="linearGradient3617"
       xlink:href="#linearGradient3641"
       gradientUnits="userSpaceOnUse" />
    <linearGradient
       x1="16.162441"
       y1="52.098946"
       x2="76.838295"
       y2="52.098946"
       id="linearGradient3670"
       xlink:href="#linearGradient3664"
       gradientUnits="userSpaceOnUse" />
    <linearGradient
       x1="16.162441"
       y1="44.48222"
       x2="76.771591"
       y2="44.48222"
       id="linearGradient3674"
       xlink:href="#linearGradient3719"
       gradientUnits="userSpaceOnUse" />
    <linearGradient
       x1="16.162441"
       y1="44.48222"
       x2="76.771591"
       y2="44.48222"
       id="linearGradient3707"
       xlink:href="#linearGradient3650"
       gradientUnits="userSpaceOnUse" />
    <radialGradient
       cx="48"
       cy="48.000935"
       r="27.001867"
       fx="48"
       fy="48.000935"
       id="radialGradient3738"
       xlink:href="#linearGradient3732"
       gradientUnits="userSpaceOnUse"
       gradientTransform="matrix(1,0,0,0.99996543,0,0.00165947)" />
    <linearGradient
       x1="16.162441"
       y1="44.48222"
       x2="76.771591"
       y2="44.48222"
       id="linearGradient3744"
       xlink:href="#linearGradient3746"
       gradientUnits="userSpaceOnUse" />
    <clipPath
       id="clipPath3798">
      <path
         d="m 61.366765,45.997448 a 13.637059,13.637059 0 1 1 -27.274118,0 13.637059,13.637059 0 1 1 27.274118,0 z"
         transform="matrix(1.0266143,0,0,1.0266143,-0.999999,0.778362)"
         id="path3800"
         style="fill:#ff00ff;fill-opacity:1;stroke:none" />
    </clipPath>
    <filter
       x="-0.23999999"
       y="-0.24000001"
       width="1.48"
       height="1.48"
       color-interpolation-filters="sRGB"
       id="filter3833">
      <feGaussianBlur
         id="feGaussianBlur3835"
         stdDeviation="2.8000002" />
    </filter>
    <radialGradient
       cx="47.729706"
       cy="45.997448"
       r="13.637059"
       fx="47.729706"
       fy="45.997448"
       id="radialGradient3687"
       xlink:href="#linearGradient3681"
       gradientUnits="userSpaceOnUse" />
    <linearGradient
       x1="33.199345"
       y1="45.997448"
       x2="67.957489"
       y2="45.997448"
       id="linearGradient3733"
       xlink:href="#linearGradient3727"
       gradientUnits="userSpaceOnUse" />
    <linearGradient
       x1="40.068184"
       y1="58.17598"
       x2="31.793724"
       y2="49.665066"
       id="linearGradient3767"
       xlink:href="#linearGradient3761"
       gradientUnits="userSpaceOnUse" />
    <linearGradient
       x1="40.068184"
       y1="58.17598"
       x2="40.068184"
       y2="41.697067"
       id="linearGradient3771"
       xlink:href="#linearGradient3761"
       gradientUnits="userSpaceOnUse" />
    <linearGradient
       x1="40.068184"
       y1="58.17598"
       x2="40.068184"
       y2="41.697067"
       id="linearGradient3775"
       xlink:href="#linearGradient3761"
       gradientUnits="userSpaceOnUse" />
    <linearGradient
       x1="40.068184"
       y1="58.17598"
       x2="40.068184"
       y2="41.697067"
       id="linearGradient3779"
       xlink:href="#linearGradient3761"
       gradientUnits="userSpaceOnUse" />
    <linearGradient
       x1="40.068184"
       y1="58.17598"
       x2="40.068184"
       y2="41.697067"
       id="linearGradient3791"
       xlink:href="#linearGradient3761"
       gradientUnits="userSpaceOnUse" />
    <radialGradient
       cx="41"
       cy="52"
       r="9.7082043"
       fx="41"
       fy="52"
       id="radialGradient3803"
       xlink:href="#linearGradient3797"
       gradientUnits="userSpaceOnUse"
       gradientTransform="matrix(1,0,0,0.61803397,0,19.862234)" />
    <filter
       color-interpolation-filters="sRGB"
       id="filter3774">
      <feGaussianBlur
         id="feGaussianBlur3776"
         stdDeviation="0.27274118" />
    </filter>
    <linearGradient
       x1="53.510502"
       y1="59.608364"
       x2="61.49099"
       y2="39.92907"
       id="linearGradient3967"
       xlink:href="#linearGradient3881"
       gradientUnits="userSpaceOnUse"
       gradientTransform="matrix(1.0266143,0,0,1.0266143,-0.9999987,50.778362)" />
    <linearGradient
       x1="53.730709"
       y1="60.139374"
       x2="62.58559"
       y2="38.831467"
       id="linearGradient3969"
       xlink:href="#linearGradient3891"
       gradientUnits="userSpaceOnUse"
       gradientTransform="matrix(0.72592593,0.72592593,-0.72592593,0.72592593,46.742509,29.961028)" />
    <linearGradient
       x1="53.387505"
       y1="60.34634"
       x2="61.982975"
       y2="39.437084"
       id="linearGradient3971"
       xlink:href="#linearGradient3901"
       gradientUnits="userSpaceOnUse"
       gradientTransform="matrix(0,1.0266143,-1.0266143,0,95.221638,49.000001)" />
    <linearGradient
       x1="53.295853"
       y1="59.182693"
       x2="61.88982"
       y2="40.223007"
       id="linearGradient3973"
       xlink:href="#linearGradient3911"
       gradientUnits="userSpaceOnUse"
       gradientTransform="matrix(-0.72592593,0.72592593,-0.72592593,-0.72592593,116.03897,96.742509)" />
    <linearGradient
       x1="53.87949"
       y1="61.330303"
       x2="60.999012"
       y2="39.683075"
       id="linearGradient3975"
       xlink:href="#linearGradient3921"
       gradientUnits="userSpaceOnUse"
       gradientTransform="matrix(-1.0266143,0,0,-1.0266143,96.999997,145.22164)" />
    <linearGradient
       x1="53.469795"
       y1="59.878456"
       x2="60.324341"
       y2="39.70118"
       id="linearGradient3977"
       xlink:href="#linearGradient3851"
       gradientUnits="userSpaceOnUse"
       gradientTransform="matrix(-0.72592593,-0.72592593,0.72592593,-0.72592593,49.25749,166.03897)" />
    <linearGradient
       x1="61.628212"
       y1="39.683075"
       x2="52.881298"
       y2="60.715324"
       id="linearGradient3979"
       xlink:href="#linearGradient3861"
       gradientUnits="userSpaceOnUse"
       gradientTransform="matrix(0,-1.0266143,1.0266143,0,0.77836254,147)" />
    <linearGradient
       x1="53.034939"
       y1="61.183025"
       x2="61.802849"
       y2="40.483921"
       id="linearGradient3981"
       xlink:href="#linearGradient3871"
       gradientUnits="userSpaceOnUse"
       gradientTransform="matrix(0.72592593,-0.72592593,0.72592593,0.72592593,-20.03897,99.25749)" />
    <filter
       color-interpolation-filters="sRGB"
       id="filter3987">
      <feGaussianBlur
         id="feGaussianBlur3989"
         stdDeviation="0.42020394" />
    </filter>
    <linearGradient
       x1="64.072342"
       y1="64.036171"
       x2="46.604744"
       y2="46.568573"
       id="linearGradient3817"
       xlink:href="#linearGradient3761"
       gradientUnits="userSpaceOnUse" />
    <linearGradient
       x1="45.447727"
       y1="92.539597"
       x2="45.447727"
       y2="7.0165396"
       id="ButtonShadow-0"
       gradientUnits="userSpaceOnUse"
       gradientTransform="matrix(1.0058652,0,0,0.994169,100,0)">
      <stop
         id="stop3750-8"
         style="stop-color:#000000;stop-opacity:1"
         offset="0" />
      <stop
         id="stop3752-5"
         style="stop-color:#000000;stop-opacity:0.58823532"
         offset="1" />
    </linearGradient>
    <linearGradient
       x1="32.251034"
       y1="6.1317081"
       x2="32.251034"
       y2="90.238609"
       id="linearGradient3780"
       xlink:href="#ButtonShadow-0"
       gradientUnits="userSpaceOnUse"
       gradientTransform="matrix(1.0238095,0,0,1.0119048,-1.1428571,-98.071429)" />
    <linearGradient
       x1="32.251034"
       y1="6.1317081"
       x2="32.251034"
       y2="90.238609"
       id="linearGradient3772"
       xlink:href="#ButtonShadow-0"
       gradientUnits="userSpaceOnUse"
       gradientTransform="matrix(1.0238095,0,0,1.0119048,-1.1428571,-98.071429)" />
    <linearGradient
       x1="32.251034"
       y1="6.1317081"
       x2="32.251034"
       y2="90.238609"
       id="linearGradient3725"
       xlink:href="#ButtonShadow-0"
       gradientUnits="userSpaceOnUse"
       gradientTransform="matrix(1.0238095,0,0,1.0119048,-1.1428571,-98.071429)" />
    <linearGradient
       x1="32.251034"
       y1="6.1317081"
       x2="32.251034"
       y2="90.238609"
       id="linearGradient3721"
       xlink:href="#ButtonShadow-0"
       gradientUnits="userSpaceOnUse"
       gradientTransform="translate(0,-97)" />
    <linearGradient
       x1="32.251034"
       y1="6.1317081"
       x2="32.251034"
       y2="90.238609"
       id="linearGradient2918"
       xlink:href="#ButtonShadow-0"
       gradientUnits="userSpaceOnUse"
       gradientTransform="matrix(1.0238095,0,0,1.0119048,-1.1428571,-98.071429)" />
    <inkscape:perspective
       id="perspective2839"
       inkscape:persp3d-origin="0.5 : 0.33333333 : 1"
       inkscape:vp_z="1 : 0.5 : 1"
       inkscape:vp_y="0 : 1000 : 0"
       inkscape:vp_x="0 : 0.5 : 1"
       sodipodi:type="inkscape:persp3d" />
    <linearGradient
       inkscape:collect="always"
       xlink:href="#linearGradient2854"
       id="linearGradient5118"
       gradientUnits="userSpaceOnUse"
       gradientTransform="matrix(0.25988,0,0,0.25988,0.09824731,-0.587767)"
       x1="22.892284"
       y1="53.865356"
       x2="10.679447"
       y2="8.5585861" />
    <linearGradient
       id="linearGradient2854">
      <stop
         style="stop-color:#0a0a0a;stop-opacity:1.0000000;"
         offset="0.0000000"
         id="stop2856" />
      <stop
         style="stop-color:#224354;stop-opacity:1.0000000;"
         offset="1.0000000"
         id="stop2858" />
    </linearGradient>
    <linearGradient
       inkscape:collect="always"
       xlink:href="#linearGradient2854"
       id="linearGradient5120"
       gradientUnits="userSpaceOnUse"
       gradientTransform="matrix(0.973,0,0,0.973,0.300334,0.125665)"
       x1="5.9066291"
       y1="13.653723"
       x2="2.6446903"
       y2="1.5526923" />
    <linearGradient
       id="linearGradient2848">
      <stop
         style="stop-color:#0a0a0a;stop-opacity:1.0000000;"
         offset="0.0000000"
         id="stop2850" />
      <stop
         style="stop-color:#224354;stop-opacity:1.0000000;"
         offset="1.0000000"
         id="stop2852" />
    </linearGradient>
    <linearGradient
       y2="8.5585861"
       x2="10.679447"
       y1="53.865356"
       x1="22.892284"
       gradientTransform="matrix(0.25988,0,0,0.25988,0.09824731,-0.587767)"
       gradientUnits="userSpaceOnUse"
       id="linearGradient2857"
       xlink:href="#linearGradient2854"
       inkscape:collect="always" />
    <linearGradient
       y2="1.5526923"
       x2="2.6446903"
       y1="13.653723"
       x1="5.9066291"
       gradientTransform="matrix(0.973,0,0,0.973,0.300334,0.125665)"
       gradientUnits="userSpaceOnUse"
       id="linearGradient2859"
       xlink:href="#linearGradient2854"
       inkscape:collect="always" />
    <linearGradient
       inkscape:collect="always"
       xlink:href="#ButtonShadow-0"
       id="linearGradient3089"
       gradientUnits="userSpaceOnUse"
       gradientTransform="matrix(1.0238095,0,0,1.0119048,-1.1428571,-98.071429)"
       x1="32.251034"
       y1="6.1317081"
       x2="32.251034"
       y2="90.238609" />
    <linearGradient
       inkscape:collect="always"
       xlink:href="#ButtonShadow-0"
       id="linearGradient3091"
       gradientUnits="userSpaceOnUse"
       gradientTransform="matrix(1.0238095,0,0,1.0119048,-1.1428571,-98.071429)"
       x1="32.251034"
       y1="6.1317081"
       x2="32.251034"
       y2="90.238609" />
    <linearGradient
       inkscape:collect="always"
       xlink:href="#ButtonShadow-0"
       id="linearGradient3093"
       gradientUnits="userSpaceOnUse"
       gradientTransform="matrix(1.0238095,0,0,1.0119048,-1.1428571,-98.071429)"
       x1="32.251034"
       y1="6.1317081"
       x2="32.251034"
       y2="90.238609" />
    <linearGradient
       inkscape:collect="always"
       xlink:href="#ButtonShadow-0"
       id="linearGradient3095"
       gradientUnits="userSpaceOnUse"
       gradientTransform="matrix(1.0238095,0,0,1.0119048,-1.1428571,-98.071429)"
       x1="32.251034"
       y1="6.1317081"
       x2="32.251034"
       y2="90.238609" />
    <linearGradient
       inkscape:collect="always"
       xlink:href="#ButtonShadow-0"
       id="linearGradient3097"
       gradientUnits="userSpaceOnUse"
       gradientTransform="translate(0,-97)"
       x1="32.251034"
       y1="6.1317081"
       x2="32.251034"
       y2="90.238609" />
    <linearGradient
       inkscape:collect="always"
       xlink:href="#linearGradient3641"
       id="linearGradient3099"
       gradientUnits="userSpaceOnUse"
       x1="48"
       y1="90"
       x2="48"
       y2="5.9877172" />
    <linearGradient
       inkscape:collect="always"
       xlink:href="#linearGradient3737"
       id="linearGradient3101"
       gradientUnits="userSpaceOnUse"
       x1="36.357143"
       y1="6"
       x2="36.357143"
       y2="63.893143" />
    <radialGradient
       inkscape:collect="always"
       xlink:href="#linearGradient3737"
       id="radialGradient3103"
       gradientUnits="userSpaceOnUse"
       gradientTransform="matrix(1.1573129,0,0,0.99590774,-7.5510206,0.19713193)"
       cx="48"
       cy="90.171875"
       fx="48"
       fy="90.171875"
       r="42" />
    <linearGradient
       inkscape:collect="always"
       xlink:href="#linearGradient3737"
       id="linearGradient3105"
       gradientUnits="userSpaceOnUse"
       x1="48"
       y1="20.220806"
       x2="48"
       y2="138.66119" />
  </defs>
  <metadata
     id="metadata2413">
    <rdf:RDF>
      <cc:Work
         rdf:about="">
        <dc:format>image/svg+xml</dc:format>
        <dc:type
           rdf:resource="http://purl.org/dc/dcmitype/StillImage" />
        <dc:title></dc:title>
      </cc:Work>
    </rdf:RDF>
  </metadata>
  <g
     id="layer2"
     style="display:none">
    <rect
       width="86"
       height="85"
       rx="6"
       ry="6"
       x="5"
       y="7"
       id="rect3745"
       style="opacity:0.9;fill:url(#ButtonShadow);fill-opacity:1;fill-rule:nonzero;stroke:none;filter:url(#filter3174)" />
  </g>
  <g
     id="g3075"
     transform="translate(0,-1.5)">
    <g
       id="layer7">
      <path
         style="opacity:0.07999998;fill:url(#linearGradient3089);fill-opacity:1;fill-rule:nonzero;stroke:none;display:inline"
         id="path3786"
         transform="scale(1,-1)"
         d="m 12,-95.03125 c -5.5110903,0 -10.03125,4.52016 -10.03125,10.03125 l 0,71 c 0,5.5110902 4.5201598,10.03125 10.03125,10.03125 l 72,0 c 5.51109,0 10.03125,-4.5201597 10.03125,-10.03125 l 0,-71 c 0,-5.51109 -4.52016,-10.03125 -10.03125,-10.03125 l -72,0 z" />
      <path
         style="opacity:0.1;fill:url(#linearGradient3091);fill-opacity:1;fill-rule:nonzero;stroke:none;display:inline"
         id="path3778-9"
         transform="scale(1,-1)"
         d="m 12,-94.03125 c -4.971633,0 -9.03125,4.059617 -9.03125,9.03125 l 0,71 c 0,4.9716329 4.0596171,9.03125 9.03125,9.03125 l 72,0 c 4.971633,0 9.03125,-4.059617 9.03125,-9.03125 l 0,-71 c 0,-4.971633 -4.059617,-9.03125 -9.03125,-9.03125 l -72,0 z" />
      <path
         style="opacity:0.2;fill:url(#linearGradient3093);fill-opacity:1;fill-rule:nonzero;stroke:none;display:inline"
         id="path3770"
         transform="scale(1,-1)"
         d="m 12,-93 c -4.4091333,0 -8,3.590867 -8,8 l 0,71 c 0,4.4091333 3.5908667,8 8,8 l 72,0 c 4.409133,0 8,-3.5908667 8,-8 l 0,-71 c 0,-4.409133 -3.590867,-8 -8,-8 l -72,0 z" />
      <rect
         style="opacity:0.3;fill:url(#linearGradient3095);fill-opacity:1;fill-rule:nonzero;stroke:none;display:inline"
         id="rect3723"
         transform="scale(1,-1)"
         y="-92"
         x="5"
         ry="7"
         rx="7"
         height="85"
         width="86" />
      <rect
         style="opacity:0.45;fill:url(#linearGradient3097);fill-opacity:1;fill-rule:nonzero;stroke:none;display:inline"
         id="rect3716"
         transform="scale(1,-1)"
         y="-91"
         x="6"
         ry="6"
         rx="6"
         height="84"
         width="84" />
    </g>
    <g
       id="layer1">
      <rect
         style="fill:url(#linearGradient3099);fill-opacity:1;fill-rule:nonzero;stroke:none"
         id="rect2419"
         y="6"
         x="6"
         ry="6"
         rx="6"
         height="84"
         width="84" />
      <path
         style="opacity:0.5;fill:url(#linearGradient3101);fill-opacity:1;fill-rule:nonzero;stroke:none"
         id="rect3728"
         inkscape:connector-curvature="0"
         d="M 12,6 C 8.676,6 6,8.676 6,12 l 0,2 0,68 0,2 c 0,0.334721 0.04135,0.6507 0.09375,0.96875 0.0487,0.295596 0.09704,0.596915 0.1875,0.875 0.00988,0.03038 0.020892,0.0636 0.03125,0.09375 0.098865,0.287771 0.2348802,0.547452 0.375,0.8125 0.1445918,0.273507 0.3156161,0.535615 0.5,0.78125 0.1843839,0.245635 0.3737765,0.473472 0.59375,0.6875 0.439947,0.428056 0.94291,0.814526 1.5,1.09375 0.278545,0.139612 0.5734731,0.246947 0.875,0.34375 -0.2562018,-0.100222 -0.4867109,-0.236272 -0.71875,-0.375 -0.00741,-0.0044 -0.023866,0.0045 -0.03125,0 -0.031933,-0.0193 -0.062293,-0.04251 -0.09375,-0.0625 -0.120395,-0.0767 -0.2310226,-0.163513 -0.34375,-0.25 -0.1061728,-0.0808 -0.2132809,-0.161112 -0.3125,-0.25 C 8.4783201,88.557317 8.3087904,88.373362 8.15625,88.1875 8.0486711,88.057245 7.9378561,87.922215 7.84375,87.78125 7.818661,87.74287 7.805304,87.69538 7.78125,87.65625 7.716487,87.553218 7.6510225,87.451733 7.59375,87.34375 7.4927417,87.149044 7.3880752,86.928049 7.3125,86.71875 7.30454,86.69694 7.288911,86.6782 7.28125,86.65625 7.2494249,86.5643 7.2454455,86.469419 7.21875,86.375 7.1884177,86.268382 7.1483606,86.171969 7.125,86.0625 7.0521214,85.720988 7,85.364295 7,85 L 7,83 7,15 7,13 C 7,10.218152 9.2181517,8 12,8 l 2,0 68,0 2,0 c 2.781848,0 5,2.218152 5,5 l 0,2 0,68 0,2 c 0,0.364295 -0.05212,0.720988 -0.125,1.0625 -0.04415,0.206893 -0.08838,0.397658 -0.15625,0.59375 -0.0077,0.02195 -0.0233,0.04069 -0.03125,0.0625 -0.06274,0.173739 -0.138383,0.367449 -0.21875,0.53125 -0.04158,0.0828 -0.07904,0.169954 -0.125,0.25 -0.0546,0.09721 -0.126774,0.18835 -0.1875,0.28125 -0.09411,0.140965 -0.204921,0.275995 -0.3125,0.40625 -0.143174,0.17445 -0.303141,0.346998 -0.46875,0.5 -0.01117,0.0102 -0.01998,0.02115 -0.03125,0.03125 -0.138386,0.125556 -0.285091,0.234436 -0.4375,0.34375 -0.102571,0.07315 -0.204318,0.153364 -0.3125,0.21875 -0.0074,0.0045 -0.02384,-0.0044 -0.03125,0 -0.232039,0.138728 -0.462548,0.274778 -0.71875,0.375 0.301527,-0.0968 0.596455,-0.204138 0.875,-0.34375 0.55709,-0.279224 1.060053,-0.665694 1.5,-1.09375 0.219973,-0.214028 0.409366,-0.441865 0.59375,-0.6875 0.184384,-0.245635 0.355408,-0.507743 0.5,-0.78125 0.14012,-0.265048 0.276135,-0.524729 0.375,-0.8125 0.01041,-0.03078 0.02133,-0.06274 0.03125,-0.09375 0.09046,-0.278085 0.1388,-0.579404 0.1875,-0.875 C 89.95865,84.6507 90,84.334721 90,84 l 0,-2 0,-68 0,-2 C 90,8.676 87.324,6 84,6 L 12,6 z" />
      <path
         style="opacity:0.3;fill:url(#radialGradient3103);fill-opacity:1;fill-rule:nonzero;stroke:none"
         id="path3615"
         inkscape:connector-curvature="0"
         d="M 12,90 C 8.676,90 6,87.324 6,84 L 6,82 6,14 6,12 c 0,-0.334721 0.04135,-0.6507 0.09375,-0.96875 0.0487,-0.295596 0.09704,-0.596915 0.1875,-0.875 C 6.29113,10.12587 6.302142,10.09265 6.3125,10.0625 6.411365,9.774729 6.5473802,9.515048 6.6875,9.25 6.8320918,8.976493 7.0031161,8.714385 7.1875,8.46875 7.3718839,8.223115 7.5612765,7.995278 7.78125,7.78125 8.221197,7.353194 8.72416,6.966724 9.28125,6.6875 9.559795,6.547888 9.8547231,6.440553 10.15625,6.34375 9.9000482,6.443972 9.6695391,6.580022 9.4375,6.71875 c -0.00741,0.0044 -0.023866,-0.0045 -0.03125,0 -0.031933,0.0193 -0.062293,0.04251 -0.09375,0.0625 -0.120395,0.0767 -0.2310226,0.163513 -0.34375,0.25 -0.1061728,0.0808 -0.2132809,0.161112 -0.3125,0.25 C 8.4783201,7.442683 8.3087904,7.626638 8.15625,7.8125 8.0486711,7.942755 7.9378561,8.077785 7.84375,8.21875 7.818661,8.25713 7.805304,8.30462 7.78125,8.34375 7.716487,8.446782 7.6510225,8.548267 7.59375,8.65625 7.4927417,8.850956 7.3880752,9.071951 7.3125,9.28125 7.30454,9.30306 7.288911,9.3218 7.28125,9.34375 7.2494249,9.4357 7.2454455,9.530581 7.21875,9.625 7.1884177,9.731618 7.1483606,9.828031 7.125,9.9375 7.0521214,10.279012 7,10.635705 7,11 l 0,2 0,68 0,2 c 0,2.781848 2.2181517,5 5,5 l 2,0 68,0 2,0 c 2.781848,0 5,-2.218152 5,-5 l 0,-2 0,-68 0,-2 C 89,10.635705 88.94788,10.279012 88.875,9.9375 88.83085,9.730607 88.78662,9.539842 88.71875,9.34375 88.71105,9.3218 88.69545,9.30306 88.6875,9.28125 88.62476,9.107511 88.549117,8.913801 88.46875,8.75 88.42717,8.6672 88.38971,8.580046 88.34375,8.5 88.28915,8.40279 88.216976,8.31165 88.15625,8.21875 88.06214,8.077785 87.951329,7.942755 87.84375,7.8125 87.700576,7.63805 87.540609,7.465502 87.375,7.3125 87.36383,7.3023 87.35502,7.29135 87.34375,7.28125 87.205364,7.155694 87.058659,7.046814 86.90625,6.9375 86.803679,6.86435 86.701932,6.784136 86.59375,6.71875 c -0.0074,-0.0045 -0.02384,0.0044 -0.03125,0 -0.232039,-0.138728 -0.462548,-0.274778 -0.71875,-0.375 0.301527,0.0968 0.596455,0.204138 0.875,0.34375 0.55709,0.279224 1.060053,0.665694 1.5,1.09375 0.219973,0.214028 0.409366,0.441865 0.59375,0.6875 0.184384,0.245635 0.355408,0.507743 0.5,0.78125 0.14012,0.265048 0.276135,0.524729 0.375,0.8125 0.01041,0.03078 0.02133,0.06274 0.03125,0.09375 0.09046,0.278085 0.1388,0.579404 0.1875,0.875 C 89.95865,11.3493 90,11.665279 90,12 l 0,2 0,68 0,2 c 0,3.324 -2.676,6 -6,6 l -72,0 z" />
    </g>
    <g
       style="display:inline"
       id="layer5">
      <rect
         style="opacity:0.5;fill:url(#linearGradient3105);fill-opacity:1;fill-rule:nonzero;stroke:#ffffff;stroke-width:0.5;stroke-linecap:round;stroke-linejoin:miter;stroke-miterlimit:4;stroke-opacity:1;stroke-dasharray:none;stroke-dashoffset:0;filter:url(#filter3794)"
         id="rect3171"
         clip-path="url(#clipPath3613)"
         y="15"
         x="15"
         ry="12"
         rx="12"
         height="66"
         width="66" />
    </g>
  </g>
  <g
     id="g5114"
     transform="matrix(4.4001963,0,0,4.1530131,9.3587414,14.808888)">
    <path
       style="fill:#ffffff;fill-opacity:1;fill-rule:nonzero;stroke:#ffffff;stroke-width:0.48575303;stroke-linecap:butt;stroke-linejoin:round;stroke-miterlimit:4;stroke-opacity:1;stroke-dasharray:none"
       d="M 6.1798534,1.0573299 C 5.0141243,0.99673022 4.2895164,1.7840048 4.5668343,2.7286013 5.2308964,4.5646865 7.6934008,4.8480274 8.879635,3.9863485 c 0,3.9000804 -0.3928676,7.8451175 -0.3928676,11.7451985 0.9727608,0.02685 0.9829249,0.04966 1.1466624,-0.754613 C 9.8010183,12.729655 11.131473,12.715028 12.174375,11.503639 13.027983,10.51549 13.723642,8.6636809 12.85172,7.4969664 12.429953,6.9326025 11.290195,5.281491 11.393597,5.5231395 c 0.461358,0.9920821 1.520618,2.7726382 1.241082,3.8974712 -0.35437,1.3489113 -1.644544,2.2098273 -2.9673493,2.4194113 -0.3380747,0.05118 -0.1529459,-0.05205 -0.1865746,-0.613626 0,-2.7877165 0,-5.2983777 0,-8.0860965 C 9.037773,2.0020309 7.3838694,1.0202791 6.1798534,1.0573299 z m 0.4398794,0.060979 C 7.7397822,1.0637596 8.990187,2.2003597 8.849463,3.4249919 8.5590767,4.5084177 7.0138286,4.2199527 6.2621211,3.6887805 5.4266258,3.2837657 4.6752007,1.8548689 5.6866184,1.2917715 5.8802378,1.1849157 6.1333655,1.1317278 6.6197328,1.1183093 z"
       id="path5094"
       sodipodi:nodetypes="ccccccsccccccccccc" />
    <path
       sodipodi:nodetypes="ccccccsccccccccccc"
       id="path7097"
       d="M 5.7731025,0.24514103 C 4.6073734,0.18454132 3.8676444,1.5940457 4.6049796,2.5134553 5.3363552,3.664692 7.0866499,4.3691719 8.2728841,3.507493 c 0,3.9000803 0.01599,8.288006 0.01599,12.188087 0.7062515,0.194054 0.3803181,-1.08504 0.5464968,-1.533432 0.3310208,-1.693166 1.9508431,-2.573594 2.9937451,-3.784983 0.853608,-0.988149 0.966553,-2.4982017 0.21844,-3.5923875 C 11.835657,6.4748534 11.150111,5.2026355 11.253513,5.444284 11.714871,6.4363661 12.307464,7.5502555 12.027928,8.6750885 11.673558,10.024 10.383384,10.884916 9.0605786,11.0945 8.7225041,11.14568 8.7442001,11.04245 8.7105714,10.480874 c 0,-2.7877167 0,-5.5754342 0,-8.363153 C 8.2675893,0.97945235 6.9771185,0.20809023 5.7731025,0.24514103 z M 5.9129819,0.60612042 C 7.0330313,0.55157074 8.3834361,1.4548375 8.2427121,2.6794697 7.9523258,3.7628955 6.4724508,3.6822227 5.7207433,3.1510505 4.885248,2.7460357 4.2684498,1.34268 5.2798675,0.77958257 5.4734869,0.67272679 5.6932813,0.61953887 5.9129819,0.60612042 z"
       style="fill:url(#linearGradient2857);fill-opacity:1;fill-rule:nonzero;stroke:url(#linearGradient2859);stroke-width:0.48575303;stroke-linecap:butt;stroke-linejoin:round;stroke-miterlimit:4;stroke-opacity:1;stroke-dasharray:none" />
  </g>
</svg>
