#define bullet_width 16
#define bullet_height 16
static char bullet_bits[] = {
  0x00, 0x00, 0x04, 0x00, 0x1F, 0x00, 0x1F, 0x00, 0xFF, 0x01, 0xFF, 0x03, 
  0xFF, 0x1F, 0xFF, 0x3F, 0xFF, 0x3F, 0xFF, 0x2F, 0xFF, 0x01, 0xFF, 0x01, 
  0x1F, 0x00, 0x1F, 0x00, 0x02, 0x00, 0x00, 0x00, };
