#define close_width 16
#define close_height 14
static char close_bits[] = {
  0x00, 0x00, 0x00, 0x00, 0x30, 0x0C, 0x78, 0x1E, 0xF8, 0x1F, 0xF0, 0x0F, 
  0xE0, 0x07, 0xE0, 0x07, 0xF0, 0x0F, 0xF8, 0x1F, 0x78, 0x1E, 0x30, 0x0C, 
  0x00, 0x00, 0x00, 0x00, };
