#define max_width 16
#define max_height 14
static char max_bits[] = {
  0x00, 0x00, 0x00, 0x1F, 0x00, 0x3F, 0x00, 0x3F, 0x00, 0x3F, 0x80, 0x3F, 
  0xC0, 0x3F, 0xFC, 0x03, 0xFC, 0x01, 0xFC, 0x00, 0xFC, 0x00, 0xFC, 0x00, 
  0xFC, 0x00, 0x00, 0x00, };
